<svg xmlns="http://www.w3.org/2000/svg" viewBox="0 0 149.65 192.34"><defs><style>.cls-1{fill:#333;}.cls-2{fill:none;stroke:#333;stroke-miterlimit:10;}</style></defs><g id="Layer_2" data-name="Layer 2"><g id="Layer_1-2" data-name="Layer 1"><path class="cls-1" d="M91,87.58c-4.34,1.44-9.92-1-13.5-.5a17.26,17.26,0,0,0-8.14,3.25,2.55,2.55,0,0,1-3.56-.47l0,0c-.11-.14-1.14-1.61-1.27-1.74-3-3-4.59-3.09-8.12-3.36-4.42-.32-11-.13-16.38,2.86-9,5-25,18-30,19s-8,3-8,4,3,11,8,12c3.71.74,9.16-1.15,15.06-1h2a17.13,17.13,0,0,1,2.84.26,20.92,20.92,0,0,1,5.54,1.81c6.89,3.32,8.72,7.09,9.79,11.4,2.1,8.54-2,18.21-3.27,21a7.56,7.56,0,0,1-.38.78L42,156c.91-2.1,3-8.46.34-19.13a18.65,18.65,0,0,0-3.51-7.2c-2.28,6.14-21.1,33.23-36.8,25.38a9.33,9.33,0,0,1-2-1.5s19.14,33.5,41.51,38.69a2.53,2.53,0,0,0,2.47-.75c5.48-6.05,32-37.2,32-74.79l0-.31a49,49,0,0,0-3.06-12.2,2.56,2.56,0,0,1,2.14-3.56A11.81,11.81,0,0,0,81,98.58c2.54-1.91,9.15-6,12.43-11.11C94,86.58,94,86.58,91,87.58Z"/><circle class="cls-2" cx="56.19" cy="81.91" r="1.5"/><circle class="cls-2" cx="60.72" cy="82.63" r="1.5"/><circle class="cls-2" cx="118.44" cy="61.92" r="1.5"/><circle class="cls-2" cx="64.72" cy="84.61" r="1.5"/><circle class="cls-2" cx="110.41" cy="34.46" r="1.5"/><circle class="cls-2" cx="129.22" cy="8.08" r="1.5"/><circle class="cls-2" cx="147.65" cy="2" r="1.5"/><circle class="cls-2" cx="103.65" cy="56.43" r="1.5"/><circle class="cls-1" cx="105.63" cy="71.77" r="1.5"/><circle class="cls-1" cx="102.44" cy="48.6" r="1.5"/><circle class="cls-1" cx="126.92" cy="31.66" r="1.5"/><circle class="cls-1" cx="119.1" cy="50.1" r="1.5"/><circle class="cls-2" cx="67.77" cy="88.02" r="1.5"/><circle class="cls-2" cx="125.42" cy="69.7" r="1.5"/><polyline class="cls-2" points="68.72 86.87 76.91 78.69 98.69 78.69 104.66 72.72"/><polyline class="cls-2" points="65.62 83.41 75.65 73.38 95.83 73.38 107.18 62.02 116.64 62.02 107.18 62.02 118.36 50.84"/><polyline class="cls-2" points="61.55 81.38 74.74 68.2 91.99 68.2 102.44 57.75"/><polyline class="cls-2" points="74.74 68.2 81.44 61.5 89.57 61.5 101.72 49.35"/><polyline class="cls-2" points="56.96 80.63 80.22 57.37 87.34 57.37 109.05 35.67"/><polyline class="cls-2" points="102.44 42.27 107.13 42.27 116.36 42.27 126.03 32.6"/><polyline class="cls-2" points="80.22 57.37 97.71 39.89 113.08 24.51 125.42 24.51 146.58 3.35"/><polyline class="cls-2" points="98.69 78.69 116.69 78.69 124.41 70.97"/><line class="cls-2" x1="113.08" y1="24.51" x2="128.41" y2="9.18"/></g></g></svg>